<svg id="icon" xmlns="http://www.w3.org/2000/svg" viewBox="0 0 512 512"><defs><style>.cls-1{fill:#ddd;}.cls-2{fill:#fff;}.cls-3{fill:#4d4d4d;}</style></defs><title>bill</title><path class="cls-1" d="M316.1,374.08h66.68a14.8,14.8,0,0,1,14.8,14.8V441.6A42.37,42.37,0,0,1,355.2,484H316.1Z"/><path class="cls-2" d="M316.7,436V45.81A17.78,17.78,0,0,0,298.92,28H132.21a17.78,17.78,0,0,0-17.79,17.78V438.08A45.89,45.89,0,0,0,160.31,484H353.68c-18.08,0-27.46-12.54-32.24-23.83A62.09,62.09,0,0,1,316.7,436Z"/><path class="cls-1" d="M321.44,460.14A62.09,62.09,0,0,1,316.7,436V69.12a28.87,28.87,0,0,0-26.49,28.76V407a42.11,42.11,0,0,1-42.12,42.11H195c-16.63,0-25.05,20-13.43,31.91l2.84,2.91H353.68C335.6,484,326.22,471.43,321.44,460.14Z"/><path class="cls-3" d="M298.92,22.32H132.21a23.52,23.52,0,0,0-23.5,23.49V438.08a51.66,51.66,0,0,0,51.6,51.6H353.68a3.65,3.65,0,0,1,1.52,0,48.14,48.14,0,0,0,48.09-48.08V388.88a20.53,20.53,0,0,0-20.51-20.51H342.06a5.71,5.71,0,1,0,0,11.42h40.72a9.1,9.1,0,0,1,9.09,9.09V441.6a36.7,36.7,0,0,1-36.67,36.66,3.65,3.65,0,0,1-1.52,0c-12.19,0-21.27-6.84-27-20.34a56,56,0,0,1-4.29-22V45.81A23.52,23.52,0,0,0,298.92,22.32Zm27.39,455.94h-166a40.23,40.23,0,0,1-40.18-40.18V45.81a12.09,12.09,0,0,1,12.08-12.07H298.92A12.09,12.09,0,0,1,311,45.81V436a67.3,67.3,0,0,0,5.19,26.42A51.87,51.87,0,0,0,326.31,478.26Z"/><path class="cls-3" d="M218.81,120.5H210a9.53,9.53,0,0,1,0-19.06h17.1a5.71,5.71,0,0,0,0-11.42h-7v-6a5.71,5.71,0,1,0-11.42,0v6a20.94,20.94,0,0,0,1.3,41.84h8.82a9.54,9.54,0,0,1,0,19.07h-17.1a5.71,5.71,0,1,0,0,11.42h7v6a5.71,5.71,0,0,0,11.42,0v-6a20.94,20.94,0,0,0-1.3-41.84Z"/><path class="cls-3" d="M216.56,219.81H155.93a5.71,5.71,0,0,0,0,11.42h60.63a5.71,5.71,0,0,0,0-11.42Z"/><path class="cls-3" d="M270.16,219.81H257.85a5.71,5.71,0,0,0,0,11.42h12.31a5.71,5.71,0,0,0,0-11.42Z"/><path class="cls-3" d="M216.56,275.79H155.93a5.71,5.71,0,0,0,0,11.42h60.63a5.71,5.71,0,1,0,0-11.42Z"/><path class="cls-3" d="M270.16,275.79H257.85a5.71,5.71,0,0,0,0,11.42h12.31a5.71,5.71,0,0,0,0-11.42Z"/><path class="cls-3" d="M216.56,331.77H155.93a5.71,5.71,0,0,0,0,11.42h60.63a5.71,5.71,0,0,0,0-11.42Z"/><path class="cls-3" d="M270.16,331.77H257.85a5.71,5.71,0,0,0,0,11.42h12.31a5.71,5.71,0,0,0,0-11.42Z"/><path class="cls-3" d="M216.56,387.75H155.93a5.71,5.71,0,1,0,0,11.41h60.63a5.71,5.71,0,1,0,0-11.41Z"/><path class="cls-3" d="M270.16,387.75H257.85a5.71,5.71,0,1,0,0,11.41h12.31a5.71,5.71,0,0,0,0-11.41Z"/></svg>